<svg width="532" height="448" viewBox="0 0 532 448" fill="none" xmlns="http://www.w3.org/2000/svg">
<path d="M522 121.486L268.817 10.5245C268.054 10.19 267.186 10.188 266.421 10.5189L11.8085 120.703C10.7107 121.179 10 122.26 10 123.457V185.068C10 186.725 11.3431 188.068 13 188.068H519C520.657 188.068 522 189.411 522 191.068V268.683C522 270.339 520.657 271.683 519 271.683H13C11.3431 271.683 10 273.026 10 274.683V350.749C10 352.406 11.3431 353.749 13 353.749H519C520.657 353.749 522 355.092 522 356.749V434.363C522 436.02 520.657 437.363 519 437.363H10" stroke="#4B7BEC" stroke-width="20"/>
</svg>
