<svg width="732" height="206" viewBox="0 0 732 206" fill="none" xmlns="http://www.w3.org/2000/svg">
<path d="M324.392 120.5V114.108L363.597 55.5852H323.966V47.7727H374.108V54.1648L334.903 112.688H374.534V120.5H324.392ZM392.29 120.5H383.057L409.761 47.7727H418.852L445.557 120.5H436.324L414.591 59.2784H414.023L392.29 120.5ZM395.699 92.0909H432.915V99.9034H395.699V92.0909ZM456.885 47.7727H467.396L492.112 108.142H492.964L517.68 47.7727H528.192V120.5H519.953V65.2443H519.243L496.516 120.5H488.561L465.834 65.2443H465.124V120.5H456.885V47.7727ZM545.85 120.5V47.7727H589.742V55.5852H554.657V80.1591H587.469V87.9716H554.657V112.688H590.31V120.5H545.85ZM605.615 120.5V47.7727H649.507V55.5852H614.422V80.1591H647.235V87.9716H614.422V112.688H650.076V120.5H605.615ZM723.051 47.7727V120.5H714.529L674.898 63.3977H674.188V120.5H665.381V47.7727H673.904L713.676 105.017H714.387V47.7727H723.051Z" fill="white"/>
<path d="M328.52 142.227H330.597L342.645 170.751H342.858L354.906 142.227H356.983V173.5H355.151V146.762H354.967L343.652 173.5H341.85L330.536 146.762H330.352V173.5H328.52V142.227ZM375.563 173.5H373.547L384.831 142.227H387.03L398.315 173.5H396.299L386.007 144.686H385.854L375.563 173.5ZM378.418 161.727H393.444V163.498H378.418V161.727ZM438.795 142.227V173.5H436.932L416.99 145.694H416.807V173.5H414.898V142.227H416.776L436.718 170.064H436.902V142.227H438.795ZM457.363 173.5H455.348L466.632 142.227H468.831L480.116 173.5H478.1L467.808 144.686H467.655L457.363 173.5ZM460.219 161.727H475.244V163.498H460.219V161.727ZM517.141 152C516.907 150.941 516.51 149.918 515.95 148.931C515.39 147.933 514.673 147.037 513.797 146.243C512.932 145.439 511.914 144.803 510.743 144.335C509.583 143.866 508.28 143.632 506.834 143.632C504.625 143.632 502.665 144.212 500.955 145.373C499.255 146.523 497.921 148.167 496.954 150.305C495.997 152.433 495.519 154.952 495.519 157.864C495.519 160.745 495.997 163.254 496.954 165.392C497.911 167.529 499.25 169.184 500.97 170.354C502.701 171.515 504.711 172.095 507.002 172.095C509.048 172.095 510.86 171.622 512.438 170.675C514.026 169.728 515.263 168.374 516.149 166.613C517.034 164.852 517.467 162.745 517.447 160.292L518.118 160.612H507.491V158.841H519.309V160.612C519.309 163.371 518.78 165.748 517.721 167.743C516.673 169.728 515.217 171.255 513.354 172.324C511.501 173.393 509.384 173.928 507.002 173.928C504.314 173.928 501.968 173.261 499.963 171.927C497.957 170.594 496.4 168.726 495.29 166.323C494.191 163.911 493.641 161.091 493.641 157.864C493.641 155.441 493.956 153.242 494.588 151.267C495.219 149.292 496.12 147.602 497.29 146.197C498.461 144.782 499.856 143.698 501.474 142.945C503.093 142.181 504.879 141.8 506.834 141.8C508.605 141.8 510.198 142.095 511.613 142.685C513.028 143.266 514.25 144.049 515.278 145.037C516.317 146.014 517.156 147.109 517.798 148.32C518.439 149.521 518.872 150.748 519.096 152H517.141ZM537.809 173.5V142.227H555.217V143.999H539.718V156.963H554.285V158.734H539.718V171.729H555.583V173.5H537.809ZM573.88 142.227H575.957L588.005 170.751H588.219L600.267 142.227H602.343V173.5H600.511V146.762H600.328L589.013 173.5H587.211L575.896 146.762H575.713V173.5H573.88V142.227ZM622.129 173.5V142.227H639.537V143.999H624.038V156.963H638.605V158.734H624.038V171.729H639.903V173.5H622.129ZM682.098 142.227V173.5H680.235L660.293 145.694H660.109V173.5H658.201V142.227H660.079L680.021 170.064H680.204V142.227H682.098ZM699.796 143.999V142.227H721.708V143.999H711.706V173.5H709.797V143.999H699.796Z" fill="white"/>
<path d="M278.5 3V203.5" stroke="white" stroke-width="3"/>
<path d="M239 56.3696L123.936 6.02288C123.173 5.68937 122.307 5.68737 121.543 6.01734L6.81016 55.5875C5.71143 56.0622 5 57.1446 5 58.3414V83.75C5 85.4069 6.34315 86.75 8 86.75H236C237.657 86.75 239 88.0931 239 89.75V121.902C239 123.559 237.657 124.902 236 124.902H7.99999C6.34314 124.902 5 126.245 5 127.902V159.348C5 161.005 6.34315 162.348 8 162.348H236C237.657 162.348 239 163.691 239 165.348V197.5C239 199.157 237.657 200.5 236 200.5H5" stroke="#4B7BEC" stroke-width="10"/>
</svg>
