<svg width="272" height="42" viewBox="0 0 272 42" fill="none" xmlns="http://www.w3.org/2000/svg">
<path d="M63.2784 28V26.7216L71.1193 15.017H63.1932V13.4545H73.2216V14.733L65.3807 26.4375H73.3068V28H63.2784ZM79.2443 28.2557C78.553 28.2557 77.9257 28.1255 77.3622 27.8651C76.7988 27.5999 76.3513 27.2188 76.0199 26.7216C75.6884 26.2197 75.5227 25.6136 75.5227 24.9034C75.5227 24.2784 75.6458 23.7718 75.892 23.3835C76.1383 22.9905 76.4673 22.6828 76.8793 22.4602C77.2912 22.2377 77.7457 22.072 78.2429 21.9631C78.7448 21.8494 79.2491 21.7595 79.7557 21.6932C80.4186 21.608 80.956 21.544 81.3679 21.5014C81.7846 21.4541 82.0876 21.3759 82.277 21.267C82.4711 21.1581 82.5682 20.9687 82.5682 20.6989V20.642C82.5682 19.9413 82.3764 19.3968 81.9929 19.0085C81.6141 18.6203 81.0388 18.4261 80.267 18.4261C79.4669 18.4261 78.8395 18.6013 78.3849 18.9517C77.9304 19.3021 77.6108 19.6761 77.4261 20.0739L75.8352 19.5057C76.1193 18.8428 76.4981 18.3267 76.9716 17.9574C77.4498 17.5833 77.9706 17.3229 78.5341 17.1761C79.1023 17.0246 79.661 16.9489 80.2102 16.9489C80.5606 16.9489 80.9631 16.9915 81.4176 17.0767C81.8769 17.1572 82.3196 17.3253 82.7457 17.581C83.1766 17.8366 83.5341 18.2225 83.8182 18.7386C84.1023 19.2547 84.2443 19.946 84.2443 20.8125V28H82.5682V26.5227H82.483C82.3693 26.7595 82.1799 27.0128 81.9148 27.2827C81.6496 27.5526 81.2969 27.7822 80.8565 27.9716C80.4162 28.161 79.8788 28.2557 79.2443 28.2557ZM79.5 26.75C80.1629 26.75 80.7216 26.6198 81.1761 26.3594C81.6354 26.099 81.9811 25.7628 82.2131 25.3509C82.4498 24.9389 82.5682 24.5057 82.5682 24.0511V22.517C82.4972 22.6023 82.3409 22.6804 82.0994 22.7514C81.8627 22.8177 81.5881 22.8769 81.2756 22.929C80.9678 22.9763 80.6671 23.0189 80.3736 23.0568C80.0848 23.09 79.8504 23.1184 79.6705 23.142C79.2348 23.1989 78.8277 23.2912 78.4489 23.419C78.0748 23.5421 77.7718 23.7292 77.5398 23.9801C77.3125 24.2263 77.1989 24.5625 77.1989 24.9886C77.1989 25.571 77.4143 26.0114 77.8452 26.3097C78.2808 26.6032 78.8324 26.75 79.5 26.75ZM87.3036 28V17.0909H88.9229V18.7955H89.065C89.2923 18.2131 89.6592 17.7609 90.1658 17.4389C90.6725 17.1122 91.2809 16.9489 91.9911 16.9489C92.7108 16.9489 93.3098 17.1122 93.788 17.4389C94.271 17.7609 94.6474 18.2131 94.9173 18.7955H95.0309C95.3103 18.232 95.7293 17.7846 96.288 17.4531C96.8467 17.117 97.5167 16.9489 98.2979 16.9489C99.2733 16.9489 100.071 17.2543 100.691 17.8651C101.312 18.4711 101.622 19.4157 101.622 20.6989V28H99.9457V20.6989C99.9457 19.8939 99.7255 19.3187 99.2852 18.973C98.8448 18.6274 98.3263 18.4545 97.7298 18.4545C96.9627 18.4545 96.3685 18.6866 95.9471 19.1506C95.5257 19.6098 95.315 20.1922 95.315 20.8977V28H93.6104V20.5284C93.6104 19.9081 93.4092 19.4086 93.0067 19.0298C92.6043 18.6463 92.0858 18.4545 91.4513 18.4545C91.0157 18.4545 90.6085 18.5705 90.2298 18.8026C89.8557 19.0346 89.5527 19.3565 89.3207 19.7685C89.0934 20.1757 88.9798 20.6468 88.9798 21.1818V28H87.3036ZM109.26 28.2273C108.209 28.2273 107.302 27.9953 106.54 27.5312C105.783 27.0625 105.198 26.4091 104.786 25.571C104.379 24.7282 104.175 23.7481 104.175 22.6307C104.175 21.5133 104.379 20.5284 104.786 19.6761C105.198 18.8191 105.771 18.1515 106.505 17.6733C107.243 17.1903 108.105 16.9489 109.09 16.9489C109.658 16.9489 110.219 17.0436 110.773 17.233C111.327 17.4223 111.831 17.7301 112.286 18.1562C112.74 18.5777 113.103 19.1364 113.373 19.8324C113.642 20.5284 113.777 21.3854 113.777 22.4034V23.1136H105.368V21.6648H112.073C112.073 21.0492 111.95 20.5 111.703 20.017C111.462 19.5341 111.116 19.1529 110.667 18.8736C110.221 18.5942 109.696 18.4545 109.09 18.4545C108.422 18.4545 107.845 18.6203 107.357 18.9517C106.874 19.2784 106.502 19.7045 106.242 20.2301C105.981 20.7557 105.851 21.3191 105.851 21.9205V22.8864C105.851 23.7102 105.993 24.4086 106.277 24.9815C106.566 25.5497 106.966 25.983 107.478 26.2812C107.989 26.5748 108.583 26.7216 109.26 26.7216C109.701 26.7216 110.098 26.66 110.453 26.5369C110.813 26.4091 111.123 26.2197 111.384 25.9688C111.644 25.7131 111.846 25.3958 111.988 25.017L113.607 25.4716C113.436 26.0208 113.15 26.5038 112.748 26.9205C112.345 27.3324 111.848 27.6544 111.256 27.8864C110.664 28.1136 109.999 28.2273 109.26 28.2273ZM120.901 28.2273C119.85 28.2273 118.943 27.9953 118.181 27.5312C117.423 27.0625 116.838 26.4091 116.426 25.571C116.019 24.7282 115.816 23.7481 115.816 22.6307C115.816 21.5133 116.019 20.5284 116.426 19.6761C116.838 18.8191 117.411 18.1515 118.145 17.6733C118.884 17.1903 119.746 16.9489 120.73 16.9489C121.299 16.9489 121.86 17.0436 122.414 17.233C122.968 17.4223 123.472 17.7301 123.926 18.1562C124.381 18.5777 124.743 19.1364 125.013 19.8324C125.283 20.5284 125.418 21.3854 125.418 22.4034V23.1136H117.009V21.6648H123.713C123.713 21.0492 123.59 20.5 123.344 20.017C123.103 19.5341 122.757 19.1529 122.307 18.8736C121.862 18.5942 121.337 18.4545 120.73 18.4545C120.063 18.4545 119.485 18.6203 118.998 18.9517C118.515 19.2784 118.143 19.7045 117.882 20.2301C117.622 20.7557 117.492 21.3191 117.492 21.9205V22.8864C117.492 23.7102 117.634 24.4086 117.918 24.9815C118.207 25.5497 118.607 25.983 119.118 26.2812C119.63 26.5748 120.224 26.7216 120.901 26.7216C121.341 26.7216 121.739 26.66 122.094 26.5369C122.454 26.4091 122.764 26.2197 123.025 25.9688C123.285 25.7131 123.486 25.3958 123.628 25.017L125.248 25.4716C125.077 26.0208 124.791 26.5038 124.388 26.9205C123.986 27.3324 123.489 27.6544 122.897 27.8864C122.305 28.1136 121.64 28.2273 120.901 28.2273ZM129.644 21.4375V28H127.968V17.0909H129.587V18.7955H129.729C129.985 18.2415 130.373 17.7964 130.894 17.4602C131.415 17.1193 132.087 16.9489 132.911 16.9489C133.65 16.9489 134.296 17.1004 134.85 17.4034C135.404 17.7017 135.835 18.1562 136.142 18.767C136.45 19.3731 136.604 20.1402 136.604 21.0682V28H134.928V21.1818C134.928 20.3248 134.705 19.6572 134.26 19.179C133.815 18.696 133.204 18.4545 132.428 18.4545C131.893 18.4545 131.415 18.5705 130.993 18.8026C130.577 19.0346 130.248 19.3731 130.006 19.8182C129.765 20.2633 129.644 20.803 129.644 21.4375ZM145.519 13.4545H147.621L152.565 25.5284H152.735L157.678 13.4545H159.781V28H158.133V16.9489H157.991L153.445 28H151.854L147.309 16.9489H147.167V28H145.519V13.4545ZM166.295 28.2557C165.604 28.2557 164.976 28.1255 164.413 27.8651C163.85 27.5999 163.402 27.2188 163.071 26.7216C162.739 26.2197 162.574 25.6136 162.574 24.9034C162.574 24.2784 162.697 23.7718 162.943 23.3835C163.189 22.9905 163.518 22.6828 163.93 22.4602C164.342 22.2377 164.797 22.072 165.294 21.9631C165.796 21.8494 166.3 21.7595 166.806 21.6932C167.469 21.608 168.007 21.544 168.419 21.5014C168.835 21.4541 169.138 21.3759 169.328 21.267C169.522 21.1581 169.619 20.9687 169.619 20.6989V20.642C169.619 19.9413 169.427 19.3968 169.044 19.0085C168.665 18.6203 168.09 18.4261 167.318 18.4261C166.518 18.4261 165.89 18.6013 165.436 18.9517C164.981 19.3021 164.662 19.6761 164.477 20.0739L162.886 19.5057C163.17 18.8428 163.549 18.3267 164.022 17.9574C164.501 17.5833 165.021 17.3229 165.585 17.1761C166.153 17.0246 166.712 16.9489 167.261 16.9489C167.611 16.9489 168.014 16.9915 168.468 17.0767C168.928 17.1572 169.37 17.3253 169.797 17.581C170.227 17.8366 170.585 18.2225 170.869 18.7386C171.153 19.2547 171.295 19.946 171.295 20.8125V28H169.619V26.5227H169.534C169.42 26.7595 169.231 27.0128 168.966 27.2827C168.7 27.5526 168.348 27.7822 167.907 27.9716C167.467 28.161 166.93 28.2557 166.295 28.2557ZM166.551 26.75C167.214 26.75 167.772 26.6198 168.227 26.3594C168.686 26.099 169.032 25.7628 169.264 25.3509C169.501 24.9389 169.619 24.5057 169.619 24.0511V22.517C169.548 22.6023 169.392 22.6804 169.15 22.7514C168.913 22.8177 168.639 22.8769 168.326 22.929C168.019 22.9763 167.718 23.0189 167.424 23.0568C167.136 23.09 166.901 23.1184 166.721 23.142C166.286 23.1989 165.878 23.2912 165.5 23.419C165.126 23.5421 164.823 23.7292 164.591 23.9801C164.363 24.2263 164.25 24.5625 164.25 24.9886C164.25 25.571 164.465 26.0114 164.896 26.3097C165.332 26.6032 165.883 26.75 166.551 26.75ZM176.031 21.4375V28H174.354V17.0909H175.974V18.7955H176.116C176.371 18.2415 176.76 17.7964 177.281 17.4602C177.801 17.1193 178.474 16.9489 179.298 16.9489C180.036 16.9489 180.683 17.1004 181.237 17.4034C181.79 17.7017 182.221 18.1562 182.529 18.767C182.837 19.3731 182.991 20.1402 182.991 21.0682V28H181.315V21.1818C181.315 20.3248 181.092 19.6572 180.647 19.179C180.202 18.696 179.591 18.4545 178.815 18.4545C178.28 18.4545 177.801 18.5705 177.38 18.8026C176.963 19.0346 176.634 19.3731 176.393 19.8182C176.151 20.2633 176.031 20.803 176.031 21.4375ZM189.264 28.2557C188.573 28.2557 187.945 28.1255 187.382 27.8651C186.818 27.5999 186.371 27.2188 186.039 26.7216C185.708 26.2197 185.542 25.6136 185.542 24.9034C185.542 24.2784 185.665 23.7718 185.912 23.3835C186.158 22.9905 186.487 22.6828 186.899 22.4602C187.311 22.2377 187.765 22.072 188.262 21.9631C188.764 21.8494 189.269 21.7595 189.775 21.6932C190.438 21.608 190.975 21.544 191.387 21.5014C191.804 21.4541 192.107 21.3759 192.297 21.267C192.491 21.1581 192.588 20.9687 192.588 20.6989V20.642C192.588 19.9413 192.396 19.3968 192.012 19.0085C191.634 18.6203 191.058 18.4261 190.287 18.4261C189.486 18.4261 188.859 18.6013 188.404 18.9517C187.95 19.3021 187.63 19.6761 187.446 20.0739L185.855 19.5057C186.139 18.8428 186.518 18.3267 186.991 17.9574C187.469 17.5833 187.99 17.3229 188.554 17.1761C189.122 17.0246 189.681 16.9489 190.23 16.9489C190.58 16.9489 190.983 16.9915 191.437 17.0767C191.896 17.1572 192.339 17.3253 192.765 17.581C193.196 17.8366 193.554 18.2225 193.838 18.7386C194.122 19.2547 194.264 19.946 194.264 20.8125V28H192.588V26.5227H192.502C192.389 26.7595 192.199 27.0128 191.934 27.2827C191.669 27.5526 191.316 27.7822 190.876 27.9716C190.436 28.161 189.898 28.2557 189.264 28.2557ZM189.52 26.75C190.182 26.75 190.741 26.6198 191.196 26.3594C191.655 26.099 192.001 25.7628 192.233 25.3509C192.469 24.9389 192.588 24.5057 192.588 24.0511V22.517C192.517 22.6023 192.36 22.6804 192.119 22.7514C191.882 22.8177 191.608 22.8769 191.295 22.929C190.987 22.9763 190.687 23.0189 190.393 23.0568C190.104 23.09 189.87 23.1184 189.69 23.142C189.254 23.1989 188.847 23.2912 188.468 23.419C188.094 23.5421 187.791 23.7292 187.559 23.9801C187.332 24.2263 187.218 24.5625 187.218 24.9886C187.218 25.571 187.434 26.0114 187.865 26.3097C188.3 26.6032 188.852 26.75 189.52 26.75ZM201.727 32.3182C200.917 32.3182 200.221 32.214 199.638 32.0057C199.056 31.8021 198.571 31.5322 198.183 31.196C197.799 30.8646 197.494 30.5095 197.266 30.1307L198.602 29.1932C198.753 29.392 198.945 29.6193 199.177 29.875C199.409 30.1354 199.726 30.3603 200.129 30.5497C200.536 30.7438 201.068 30.8409 201.727 30.8409C202.607 30.8409 203.334 30.6278 203.907 30.2017C204.48 29.7756 204.766 29.108 204.766 28.1989V25.983H204.624C204.501 26.1818 204.326 26.428 204.099 26.7216C203.876 27.0104 203.554 27.2685 203.133 27.4957C202.716 27.7183 202.153 27.8295 201.442 27.8295C200.562 27.8295 199.771 27.6212 199.07 27.2045C198.374 26.7879 197.823 26.1818 197.415 25.3864C197.013 24.5909 196.812 23.625 196.812 22.4886C196.812 21.3712 197.008 20.3982 197.401 19.5696C197.794 18.7363 198.341 18.0923 199.042 17.6378C199.743 17.1785 200.552 16.9489 201.471 16.9489C202.181 16.9489 202.745 17.0672 203.161 17.304C203.583 17.536 203.905 17.8011 204.127 18.0994C204.354 18.393 204.53 18.6345 204.653 18.8239H204.823V17.0909H206.442V28.3125C206.442 29.25 206.229 30.0123 205.803 30.5994C205.382 31.1913 204.814 31.6245 204.099 31.8991C203.388 32.1785 202.598 32.3182 201.727 32.3182ZM201.67 26.3239C202.342 26.3239 202.91 26.17 203.374 25.8622C203.838 25.5545 204.191 25.1117 204.433 24.5341C204.674 23.9564 204.795 23.2652 204.795 22.4602C204.795 21.6742 204.676 20.9806 204.44 20.3793C204.203 19.7779 203.853 19.3068 203.388 18.9659C202.924 18.625 202.352 18.4545 201.67 18.4545C200.96 18.4545 200.368 18.6345 199.894 18.9943C199.425 19.3542 199.073 19.8371 198.836 20.4432C198.604 21.0492 198.488 21.7216 198.488 22.4602C198.488 23.2178 198.606 23.8878 198.843 24.4702C199.085 25.0478 199.44 25.5024 199.908 25.8338C200.382 26.1605 200.969 26.3239 201.67 26.3239ZM214.085 28.2273C213.033 28.2273 212.127 27.9953 211.364 27.5312C210.607 27.0625 210.022 26.4091 209.61 25.571C209.203 24.7282 208.999 23.7481 208.999 22.6307C208.999 21.5133 209.203 20.5284 209.61 19.6761C210.022 18.8191 210.595 18.1515 211.329 17.6733C212.067 17.1903 212.929 16.9489 213.914 16.9489C214.482 16.9489 215.043 17.0436 215.597 17.233C216.151 17.4223 216.656 17.7301 217.11 18.1562C217.565 18.5777 217.927 19.1364 218.197 19.8324C218.467 20.5284 218.602 21.3854 218.602 22.4034V23.1136H210.192V21.6648H216.897C216.897 21.0492 216.774 20.5 216.528 20.017C216.286 19.5341 215.941 19.1529 215.491 18.8736C215.046 18.5942 214.52 18.4545 213.914 18.4545C213.246 18.4545 212.669 18.6203 212.181 18.9517C211.698 19.2784 211.326 19.7045 211.066 20.2301C210.806 20.7557 210.675 21.3191 210.675 21.9205V22.8864C210.675 23.7102 210.817 24.4086 211.102 24.9815C211.39 25.5497 211.79 25.983 212.302 26.2812C212.813 26.5748 213.407 26.7216 214.085 26.7216C214.525 26.7216 214.923 26.66 215.278 26.5369C215.638 26.4091 215.948 26.2197 216.208 25.9688C216.469 25.7131 216.67 25.3958 216.812 25.017L218.431 25.4716C218.261 26.0208 217.974 26.5038 217.572 26.9205C217.169 27.3324 216.672 27.6544 216.08 27.8864C215.488 28.1136 214.823 28.2273 214.085 28.2273ZM221.151 28V17.0909H222.771V18.7955H222.913C223.14 18.2131 223.507 17.7609 224.013 17.4389C224.52 17.1122 225.129 16.9489 225.839 16.9489C226.558 16.9489 227.157 17.1122 227.636 17.4389C228.119 17.7609 228.495 18.2131 228.765 18.7955H228.879C229.158 18.232 229.577 17.7846 230.136 17.4531C230.694 17.117 231.364 16.9489 232.146 16.9489C233.121 16.9489 233.919 17.2543 234.539 17.8651C235.159 18.4711 235.469 19.4157 235.469 20.6989V28H233.793V20.6989C233.793 19.8939 233.573 19.3187 233.133 18.973C232.692 18.6274 232.174 18.4545 231.577 18.4545C230.81 18.4545 230.216 18.6866 229.795 19.1506C229.373 19.6098 229.163 20.1922 229.163 20.8977V28H227.458V20.5284C227.458 19.9081 227.257 19.4086 226.854 19.0298C226.452 18.6463 225.933 18.4545 225.299 18.4545C224.863 18.4545 224.456 18.5705 224.077 18.8026C223.703 19.0346 223.4 19.3565 223.168 19.7685C222.941 20.1757 222.827 20.6468 222.827 21.1818V28H221.151ZM243.108 28.2273C242.057 28.2273 241.15 27.9953 240.388 27.5312C239.63 27.0625 239.045 26.4091 238.634 25.571C238.226 24.7282 238.023 23.7481 238.023 22.6307C238.023 21.5133 238.226 20.5284 238.634 19.6761C239.045 18.8191 239.618 18.1515 240.352 17.6733C241.091 17.1903 241.953 16.9489 242.938 16.9489C243.506 16.9489 244.067 17.0436 244.621 17.233C245.175 17.4223 245.679 17.7301 246.134 18.1562C246.588 18.5777 246.95 19.1364 247.22 19.8324C247.49 20.5284 247.625 21.3854 247.625 22.4034V23.1136H239.216V21.6648H245.92C245.92 21.0492 245.797 20.5 245.551 20.017C245.31 19.5341 244.964 19.1529 244.514 18.8736C244.069 18.5942 243.544 18.4545 242.938 18.4545C242.27 18.4545 241.692 18.6203 241.205 18.9517C240.722 19.2784 240.35 19.7045 240.089 20.2301C239.829 20.7557 239.699 21.3191 239.699 21.9205V22.8864C239.699 23.7102 239.841 24.4086 240.125 24.9815C240.414 25.5497 240.814 25.983 241.325 26.2812C241.837 26.5748 242.431 26.7216 243.108 26.7216C243.548 26.7216 243.946 26.66 244.301 26.5369C244.661 26.4091 244.971 26.2197 245.232 25.9688C245.492 25.7131 245.693 25.3958 245.835 25.017L247.455 25.4716C247.284 26.0208 246.998 26.5038 246.595 26.9205C246.193 27.3324 245.696 27.6544 245.104 27.8864C244.512 28.1136 243.847 28.2273 243.108 28.2273ZM251.851 21.4375V28H250.175V17.0909H251.794V18.7955H251.936C252.192 18.2415 252.58 17.7964 253.101 17.4602C253.622 17.1193 254.294 16.9489 255.118 16.9489C255.857 16.9489 256.503 17.1004 257.057 17.4034C257.611 17.7017 258.042 18.1562 258.349 18.767C258.657 19.3731 258.811 20.1402 258.811 21.0682V28H257.135V21.1818C257.135 20.3248 256.912 19.6572 256.467 19.179C256.022 18.696 255.411 18.4545 254.635 18.4545C254.1 18.4545 253.622 18.5705 253.2 18.8026C252.784 19.0346 252.455 19.3731 252.213 19.8182C251.972 20.2633 251.851 20.803 251.851 21.4375ZM266.618 17.0909V18.5114H260.965V17.0909H266.618ZM262.613 14.4773H264.289V24.875C264.289 25.3485 264.357 25.7036 264.495 25.9403C264.637 26.1723 264.817 26.3286 265.034 26.4091C265.257 26.4848 265.491 26.5227 265.738 26.5227C265.922 26.5227 266.074 26.5133 266.192 26.4943C266.31 26.4706 266.405 26.4517 266.476 26.4375L266.817 27.9432C266.703 27.9858 266.545 28.0284 266.341 28.071C266.138 28.1184 265.88 28.142 265.567 28.142C265.094 28.142 264.63 28.0402 264.175 27.8366C263.725 27.633 263.351 27.3229 263.053 26.9062C262.759 26.4896 262.613 25.964 262.613 25.3295V14.4773Z" fill="white"/>
<path d="M51 11.4348L27.3127 1.48495C26.574 1.17462 25.7417 1.17275 25.0016 1.47975L2.85064 10.6672C1.73032 11.1319 1 12.2254 1 13.4383V14.6667C1 16.3235 2.34315 17.6667 4 17.6667H48C49.6569 17.6667 51 19.0098 51 20.6667V22.4928C51 24.1496 49.6569 25.4928 48 25.4928H4C2.34315 25.4928 1 26.8359 1 28.4928V30.1739C1 31.8308 2.34315 33.1739 4 33.1739H48C49.6569 33.1739 51 34.5171 51 36.1739V38C51 39.6569 49.6569 41 48 41H1" stroke="#4B7BEC" stroke-width="2"/>
</svg>
